HIERARCHY
ROOT Hips
{
 OFFSET 0.000000 0.000000 0.000000
 CHANNELS 6 Xposition Yposition Zposition Yrotation Xrotation Zrotation
 JOINT Chest
 {
  OFFSET 0.000000 9.585900 0.002600
  CHANNELS 3 Yrotation Xrotation Zrotation
  JOINT Chest2
  {
   OFFSET 0.000000 9.601200 -0.005300
   CHANNELS 3 Yrotation Xrotation Zrotation
   JOINT Chest3
   {
    OFFSET 0.000000 9.561800 0.000000
    CHANNELS 3 Yrotation Xrotation Zrotation
    JOINT Chest4
    {
     OFFSET 0.000000 9.552100 0.000000
     CHANNELS 3 Yrotation Xrotation Zrotation
     JOINT Neck
     {
      OFFSET 0.000000 14.453000 0.000000
      CHANNELS 3 Yrotation Xrotation Zrotation
      JOINT Head
      {
       OFFSET 0.000000 8.936500 -0.011300
       CHANNELS 3 Yrotation Xrotation Zrotation
       End Site
       {
        OFFSET 0.000000 17.073600 -0.006000
       }
      }
     }
     JOINT RightCollar
     {
      OFFSET -2.921100 9.558500 0.000000
      CHANNELS 3 Yrotation Xrotation Zrotation
      JOINT RightShoulder
      {
       OFFSET -13.519700 0.000000 0.000000
       CHANNELS 3 Yrotation Xrotation Zrotation
       JOINT RightElbow
       {
        OFFSET 0.000000 -29.696600 0.000000
        CHANNELS 3 Yrotation Xrotation Zrotation
        JOINT RightWrist
        {
         OFFSET 0.000000 -24.004700 0.000000
         CHANNELS 3 Yrotation Xrotation Zrotation
         End Site
         {
          OFFSET 0.000000 -17.728500 0.000000
         }
        }
       }
      }
     }
     JOINT LeftCollar
     {
      OFFSET 2.921100 9.558500 0.000000
      CHANNELS 3 Yrotation Xrotation Zrotation
      JOINT LeftShoulder
      {
       OFFSET 13.519700 0.000000 0.000000
       CHANNELS 3 Yrotation Xrotation Zrotation
       JOINT LeftElbow
       {
        OFFSET 0.000000 -29.696600 0.000000
        CHANNELS 3 Yrotation Xrotation Zrotation
        JOINT LeftWrist
        {
         OFFSET 0.000000 -24.004700 0.000000
         CHANNELS 3 Yrotation Xrotation Zrotation
         End Site
         {
          OFFSET 0.000000 -17.728500 0.000000
         }
        }
       }
      }
     }
    }
   }
  }
 }
 JOINT RightHip
 {
  OFFSET -7.771700 -0.012900 -0.001300
  CHANNELS 3 Yrotation Xrotation Zrotation
  JOINT RightKnee
  {
   OFFSET 0.000000 -40.869800 0.001200
   CHANNELS 3 Yrotation Xrotation Zrotation
   JOINT RightAnkle
   {
    OFFSET 0.000000 -39.717900 0.002100
    CHANNELS 3 Yrotation Xrotation Zrotation
    JOINT RightToe
    {
     OFFSET 0.000000 -4.965400 11.033500
     CHANNELS 3 Yrotation Xrotation Zrotation
     End Site
     {
      OFFSET 0.000000 -1.423100 5.872300
     }
    }
   }
  }
 }
 JOINT LeftHip
 {
  OFFSET 7.771700 -0.012900 -0.001300
  CHANNELS 3 Yrotation Xrotation Zrotation
  JOINT LeftKnee
  {
   OFFSET 0.000000 -40.869800 0.001200
   CHANNELS 3 Yrotation Xrotation Zrotation
   JOINT LeftAnkle
   {
    OFFSET 0.000000 -39.717900 0.002100
    CHANNELS 3 Yrotation Xrotation Zrotation
    JOINT LeftToe
    {
     OFFSET 0.000000 -4.965400 11.033500
     CHANNELS 3 Yrotation Xrotation Zrotation
     End Site
     {
      OFFSET 0.000000 -1.423100 5.872300
     }
    }
   }
  }
 }
}
MOTION
Frames: 6
Frame Time: 0.008333
0.000000 85.388000 0.000000 0.000000 -5.767877 0.000000 0.000000 11.653817 0.000000 0.000000 -5.885947 0.000000 0.000000 -0.000000 0.000000 0.000000 -0.000000 0.000000 0.000000 12.528835 0.000000 0.000000 0.711642 0.000000 0.000000 -0.000000 0.000000 0.000000 0.000000 -90.000000 0.000000 -2.309062 0.000000 0.000000 2.309062 0.000000 0.000000 -0.000000 0.000000 0.000000 -0.000000 90.000000 0.000000 -2.309062 0.000000 0.000000 2.309062 0.000000 0.000000 8.520406 0.000000 0.000000 1.905762 0.000000 -0.000000 -4.658285 0.000000 0.000000 -0.000000 0.000000 0.000000 8.520406 0.000000 0.000000 1.905762 0.000000 -0.000000 -4.658285 0.000000 0.000000 -0.000000 0.000000
-10.115594 55.715949 19.710374 -175.980796 -31.606356 -10.729947 -1.702777 14.247542 6.160111 -0.815320 8.342914 1.960364 -0.982729 10.432252 2.433647 -0.814796 8.347464 1.960141 1.357923 19.434266 -2.745121 2.074328 -5.114841 -3.235768 6.222344 -2.395502 -2.165355 -0.204827 -25.855156 -0.190139 49.779987 -33.445918 -32.360608 10.191625 6.887331 -14.387129 -12.003261 -1.499143 -4.839832 -9.616409 -23.626238 3.410527 -52.868295 -27.501317 46.226487 -1.111910 1.128084 2.465643 -19.868425 -27.494515 6.415426 81.289580 87.859050 79.756938 2.741920 -27.382435 -3.416030 -0.814279 2.460091 -0.369338 -10.972920 -44.322814 11.089512 175.306708 73.149371 173.407356 -1.299434 -24.724416 1.579000 -0.654218 -2.039504 -0.296863
-10.115652 55.715600 19.710751 -175.977328 -31.610320 -10.729612 -1.698891 14.248110 6.163322 -0.820111 8.345988 1.958431 -0.981211 10.434920 2.435247 -0.817414 8.347457 1.958469 1.355286 19.437550 -2.747503 2.065327 -5.059624 -3.251243 6.221607 -2.389017 -2.159889 -0.208590 -25.860318 -0.187677 49.783077 -33.455337 -32.385498 10.177848 6.883103 -14.376593 -12.013137 -1.486417 -4.839818 -9.609949 -23.635539 3.411199 -52.869542 -27.513269 46.242146 -1.094328 1.126557 2.461966 -19.869743 -27.491761 6.412609 81.314494 87.860879 79.781425 2.742385 -27.380005 -3.417380 -0.813446 2.457630 -0.367855 -10.968030 -44.320753 11.078758 175.309677 73.149255 173.415627 -1.295060 -24.723033 1.578780 -0.654399 -2.038563 -0.297943
-10.115237 55.715049 19.711628 -175.976837 -31.612712 -10.728839 -1.698002 14.249142 6.162143 -0.817229 8.347664 1.961494 -0.984002 10.438631 2.435647 -0.820792 8.348110 1.957694 1.352468 19.457888 -2.758064 2.058904 -5.048734 -3.253921 6.223930 -2.390452 -2.159786 -0.220465 -25.855713 -0.170863 49.798988 -33.459884 -32.413799 10.184258 6.885541 -14.364548 -12.019842 -1.472087 -4.840305 -9.599126 -23.637970 3.409565 -52.881059 -27.531397 46.268763 -1.093350 1.122478 2.457321 -19.870248 -27.490851 6.412228 81.327403 87.864203 79.794419 2.742461 -27.377599 -3.419770 -0.813082 2.456597 -0.366557 -10.964305 -44.319330 11.074811 175.319372 73.149933 173.429035 -1.298316 -24.725554 1.577000 -0.651416 -2.034001 -0.294801
-10.114978 55.714510 19.712473 -175.970652 -31.615507 -10.728336 -1.698810 14.252152 6.163353 -0.821943 8.348041 1.958394 -0.984928 10.439108 2.435541 -0.824974 8.355533 1.958997 1.342130 19.486552 -2.770949 2.066444 -5.074221 -3.252776 6.233091 -2.384952 -2.150765 -0.227874 -25.859177 -0.163258 49.817593 -33.455884 -32.439724 10.168577 6.890852 -14.378539 -12.022607 -1.465041 -4.841363 -9.591245 -23.647012 3.407545 -52.885834 -27.542265 46.285798 -1.097974 1.121965 2.450160 -19.876887 -27.488794 6.410286 81.342511 87.866741 79.805941 2.743110 -27.375786 -3.420302 -0.812566 2.454724 -0.366142 -10.963452 -44.315844 11.064809 175.321131 73.152020 173.438193 -1.307725 -24.733408 1.570538 -0.642018 -2.022440 -0.288994
-10.113684 55.714808 19.712383 -175.966443 -31.626312 -10.731877 -1.699284 14.260947 6.163582 -0.822629 8.350980 1.958578 -0.985813 10.442595 2.435773 -0.829103 8.359903 1.960819 1.342766 19.490497 -2.777084 2.058872 -5.042118 -3.261837 6.240014 -2.379207 -2.142761 -0.241524 -25.865071 -0.154041 49.832748 -33.456847 -32.471502 10.157065 6.881874 -14.383139 -12.023175 -1.459558 -4.844718 -9.586670 -23.654910 3.407527 -52.887840 -27.549653 46.301171 -1.101753 1.119845 2.443841 -19.879478 -27.476625 6.409915 81.321923 87.867650 79.785970 2.740417 -27.372400 -3.425524 -0.808697 2.451501 -0.362563 -10.964055 -44.305847 11.063910 175.310321 73.149910 173.429259 -1.310016 -24.730024 1.569289 -0.642722 -2.025680 -0.289055
